<?xml version="1.0" encoding="utf-8"?>
<!-- Generator: Adobe Illustrator 19.0.0, SVG Export Plug-In . SVG Version: 6.00 Build 0)  -->
<svg version="1.1" id="Layer_1" xmlns="http://www.w3.org/2000/svg" xmlns:xlink="http://www.w3.org/1999/xlink" x="0px" y="0px"
	 viewBox="0 0 800 800" style="enable-background:new 0 0 800 800;" xml:space="preserve">
<style type="text/css">
	.st0{fill:#A26C5C;}
	.st1{fill:#FDA748;}
	.st2{fill:#FEFEFE;}
	.st3{fill:#F8F6F5;}
	.st4{fill:#FEFDFB;}
	.st5{fill:#A26C5D;}
	.st6{fill:#A36C5C;}
</style>
<g id="XMLID_1_">
	<path id="XMLID_10_" class="st0" d="M584.4,754.6c-6.8-19-11.8-22.4-32-22.4c-27.8,0-55.6,0.1-83.4-0.1c-6.1-0.1-9.8,1.3-13,7.2
		c-11.3,21.1-35.5,24.5-52.6,7.8c-10.3-10.1-20.6-20.2-31-30.2c-3-2.9-4.8-5.3-1.2-9.4c4-4.5,6.3-1.8,9.2,0.9
		c10.4,10,20.7,20,31.1,30c9.8,9.4,20.5,10,29.1,1.7c8.5-8.2,8.2-19.7-1.3-29.1c-23.3-22.8-46.9-45.4-70.3-68.1
		c-8.8-8.5-19.1-12.8-31.5-12.7c-29.2,0.2-58.4,0.3-87.5-0.1c-6.7-0.1-8.9,1.8-8.8,8.6c0.4,19.6,0.3,39.1,0,58.7
		c-0.1,5.7,1.5,8.5,7.5,7.6c1-0.2,2.1,0.1,3.1,0c28.5-4.9,51.5,5.1,72.5,24.1c15.5,14,33.3,25.3,49.9,38.1
		c9.3,7.2,19.5,10.7,31.4,10.6c39.8-0.3,79.6-0.1,119.5,0.9c-83.2,27.8-166.6,28.3-250.1,0.8C191.1,752,123.2,701.9,72.8,629.6
		C-61.3,437.3-3.5,178.2,191.3,58.9c195-119.5,451.4-50.8,559.9,149.4C860.6,410,778.6,654.7,584.4,754.6z"/>
	<path id="XMLID_9_" class="st1" d="M379.6,630.8c-36.2-36.6-72.4-73.1-109.4-108.9c-26.8-26-55.5-50.4-77.9-80.6
		c-34.9-46.9-45.9-100.4-37.4-157.6c10.6-71.5,48.4-125.5,109.3-163.7c43.7-27.4,92.1-37.4,142.7-32.4c57.6,5.8,106.2,30.7,145.8,74
		c29.1,31.9,48,68.5,56.1,110.3c9.1,46.9,4.2,92.7-17.3,136c-10.4,21-23,40.3-40.7,56c-3.7-2.7-1.8-7.7-4.9-11.4
		c-3.6,2.6-2.4,6.5-2.7,9.8c-0.6,4.8,1.4,10.2-3.2,14.1c-24.7,24.5-49.4,49-74.1,73.5c-1.1,1.1-1.5,3-2.3,4.5
		c-0.2,4.6-3.9,6.6-6.9,9c-21.7,19.9-41.7,41.5-63.3,62.5c6.6,1,12.5-0.2,18.2,0.9c2.2,0.4,7.6-0.5,4.3,5.1
		C403.5,635,391.4,636.2,379.6,630.8z"/>
	<path id="XMLID_8_" class="st2" d="M379.6,630.8c12.1-0.4,24.1-0.8,36.2-1.3c-5.4-18.3,0.1-33.5,18.4-44.2c7.7-4.5,14-8.8,17-17.5
		c0.9-2.7,2.9-5.4,5.7-7c2.2-2.2,4.4-4.3,6.6-6.5c0.9-0.5,1.7-1.2,2.6-1.6c12.3-5.1,23.6-11,33.9-20.6c14.2-13.2,36.2-10.6,50.6,2.9
		c4.1,3.8,7.9,5.2,13.6,5c23.2-1,38,10.9,42.9,33.9c0.6,3,0.8,5.7,3.9,7.8c16.8,11.6,21.8,27.4,14.5,48.1c11.6,0,22.5,0,36.1,0
		c-11.3,13.6-20.8,25.1-30.3,36.6c-14.9,17.9-30,35.7-44.6,53.8c-3.2,4-6.4,5.4-11.3,5.4c-35.7-0.1-71.4-0.1-107,0.1
		c-4.6,0-7.6-1.5-10.6-4.9C431.7,690.8,405.6,660.8,379.6,630.8z"/>
	<path id="XMLID_7_" class="st3" d="M539.7,476.4c0.1-7.8,0.3-15.6,0.3-23.4c0-3.5,0.6-5.9,4.9-5.9c4.1,0,5.3,1.9,5.3,5.6
		c0,3.7,0.2,7.5,0.4,11.2c-0.1,8.9-0.3,17.8-0.2,26.7c0,4-0.7,6.4-5.6,6.3c-4.6-0.2-4.7-2.8-4.8-6.1
		C540,485.9,539.8,481.2,539.7,476.4z"/>
	<path id="XMLID_6_" class="st0" d="M369.3,212.5c0,19.5,0,38.6,0,57.6c0,2.4-0.2,4.8,0,7.2c0.3,4.7-2.5,5.6-6.4,6
		c-5.6,0.6-4-3.5-4-6.1c-0.1-18.2-0.2-36.4,0-54.6c0.1-6.3-0.4-10.1-8.5-10.1c-8.7,0-8.1,4.8-8.1,10.5c0.1,17.8,0.1,35.7-0.1,53.5
		c0,2.8,2.2,7.7-4.1,7.1c-4.5-0.4-6.3-2.7-6.3-7.4c0.2-20.9,0.1-41.9,0.1-65.9c-10.3,22.7-16.1,43.6-18.4,65.5
		c-0.4,3.4-0.3,6.9-0.8,10.2c-2.3,14.2,0.7,26.7,12.2,36c8.8,7.1,11.9,15.6,11.7,26.9c-0.6,29.8-0.4,59.7-0.1,89.6
		c0.1,7.5-1.8,8.8-8.6,6c-47.6-19.6-83.5-69-84.9-122.3c-1-36.1,8.6-68.1,31.8-95.1c25.2-29.4,57.2-46.9,96.8-49.5
		c42.2-2.7,78.3,10.8,108.2,40.2c20.6,20.3,33.1,46,37.2,74.1c8.5,57.4-12.4,103.3-59,137.5c-6.5,4.8-14.1,12.6-21.2,9.8
		c-4.6-1.8-1.2-13.2-1.5-20.2c-0.3-8.6-0.1-17.2-0.1-25.7c0-5.5-1.9-11.8,7.7-12.2c4.1-0.2,4-6,4.2-9.5c1.2-32.2,6.8-64.2,4.2-96.4
		c-1.6-20.1-4.3-40.4-20.3-55.5c-1.2-1.2-2.4-2.4-3.8-3.4c-3.4-2.5-7.8-5.4-11.2-3.9c-3.6,1.6-3.2,7-3.2,11.1
		c0,27.8,1.7,55.6,1,83.2c-1.1,39.4-0.2,78.9-1,118.3c-0.1,3.1,0,6.2,0,9.3c-0.3,19,3.4,15.6-18,19.2c-9.3,1.6-19.2,0.2-28.8,0.4
		c-5.3,0.1-7.2-2-7.2-7.3c0.1-34.7,0.1-69.3,0-104c0-7.9,4.9-13,10.4-16.8c14-9.7,19.5-22.3,18.8-39.5c-1-22.4-3.2-44.3-12.6-65
		c-1.1-2.5-2.5-4.9-3.9-7.2C371.3,213.5,370.6,213.3,369.3,212.5z"/>
	<path id="XMLID_5_" class="st4" d="M511.3,447.6c0-10.6,0-21.2,0-31.8c0-3.4-0.5-6.9,4.8-7.1c5-0.1,5.4,2.6,5.4,6.5
		c-0.1,21.9-0.1,43.8,0,65.6c0,3.4-0.5,5.8-4.9,6c-5,0.2-5.4-2.6-5.4-6.4C511.3,469.5,511.3,458.5,511.3,447.6z"/>
	<path id="XMLID_4_" class="st5" d="M456.8,560.9c-5,12.7-10.1,24-25.4,29.3c-10.8,3.7-15.5,15.8-15.2,28.2
		c0.1,3.7-0.3,7.4-0.5,11.2c-8.8,0-17.6,0-26.2,0c-1-4.2,1.6-5.3,3.1-6.9c18.9-19,37.8-37.8,56.7-56.7
		C451.5,563.8,453.3,561.1,456.8,560.9z"/>
	<path id="XMLID_3_" class="st4" d="M490.6,483c0,7.5-0.1,15.1,0,22.6c0,3.5-0.6,5.9-5,5.9c-4.1,0-5.3-1.7-5.3-5.5
		c0.1-15.8,0.1-31.6,0-47.3c0-3.9,1.4-5.6,5.4-5.5c4.4,0.1,4.8,2.8,4.8,6.1C490.5,467.2,490.6,475.1,490.6,483z"/>
	<path id="XMLID_2_" class="st6" d="M475.2,603.4c-1.6-4.1-3-7.8-4.4-11.6c-5.9-15.6,2.7-28.1,19.5-26.5c8.7,0.8,12.4-0.3,14-9.8
		c1.5-8.7,9.8-12.3,18.1-12.5c9.2-0.3,17,3.9,20.4,12.8c2.8,7.3,5.2,10.5,13.4,5.4c8.1-5,17.2-4,25,2.2c7.4,6,8.4,13.9,5.3,22.3
		c-2.1,5.6,0.3,7.4,5.3,8.3c6.7,1.3,12.2,4.6,15.8,10.5c6.7,10.7-0.2,24.4-12.9,24.5c-50,0.2-100.1,0.2-150.1,0.1
		c-8.5,0-12.4-8.1-8.4-17c4.1-9.2,12.1-11.1,21.4-10.8C463.2,601.6,468.5,605,475.2,603.4z"/>
</g>
</svg>
