<?xml version="1.0" encoding="utf-8"?>
<!-- Generator: Adobe Illustrator 19.0.0, SVG Export Plug-In . SVG Version: 6.00 Build 0)  -->
<svg version="1.1" id="Layer_1" xmlns="http://www.w3.org/2000/svg" xmlns:xlink="http://www.w3.org/1999/xlink" x="0px" y="0px"
	 viewBox="0 0 800 800" style="enable-background:new 0 0 800 800;" xml:space="preserve">
<style type="text/css">
	.st0{fill:#A26C5C;}
	.st1{fill:#FDA748;}
	.st2{fill:#FEFEFE;}
	.st3{fill:#F8F6F5;}
	.st4{fill:#FEFDFB;}
	.st5{fill:#A26C5D;}
	.st6{fill:#A36C5C;}
	.st7{fill:#FDA748;stroke:#FDA748;stroke-width:4;stroke-miterlimit:10;}
</style>
<g id="XMLID_1_">
	<path id="XMLID_10_" class="st0" d="M542.9,602.9c-5.3-14.7-9.2-17.4-24.8-17.4c-21.6,0-43.1,0.1-64.7-0.1c-4.7,0-7.6,1-10,5.6
		c-8.7,16.4-27.6,19-40.8,6.1c-8-7.8-16-15.7-24-23.4c-2.4-2.3-3.7-4.1-0.9-7.3c3.1-3.5,4.9-1.4,7.1,0.7c8,7.8,16.1,15.5,24.1,23.3
		c7.6,7.3,15.9,7.8,22.5,1.3c6.6-6.3,6.4-15.3-1-22.5c-18.1-17.7-36.3-35.2-54.5-52.8c-6.8-6.6-14.8-9.9-24.4-9.9
		c-22.6,0.2-45.2,0.2-67.9-0.1c-5.2-0.1-6.9,1.4-6.8,6.7c0.3,15.2,0.3,30.3,0,45.5c-0.1,4.4,1.1,6.6,5.8,5.9c0.8-0.1,1.6,0.1,2.4,0
		c22.1-3.8,39.9,4,56.2,18.7c12,10.8,25.8,19.6,38.7,29.5c7.2,5.6,15.1,8.3,24.3,8.3c30.9-0.2,61.7-0.1,92.6,0.7
		c-64.5,21.6-129.2,22-193.9,0.6C238,600.9,185.3,562.1,146.3,506C42.3,357,87.2,156.1,238.2,63.5c151.2-92.6,350-39.4,434.1,115.8
		C757,335.8,693.5,525.5,542.9,602.9z"/>
	<path id="XMLID_9_" class="st1" d="M384.1,507c-28.1-28.3-56.2-56.7-84.8-84.5c-20.8-20.1-43-39.1-60.4-62.5
		c-27.1-36.4-35.6-77.8-29-122.2c8.2-55.4,37.5-97.3,84.7-126.9c33.9-21.2,71.4-29,110.6-25.1c44.6,4.5,82.4,23.8,113,57.4
		c22.6,24.7,37.2,53.1,43.5,85.5c7,36.4,3.2,71.8-13.4,105.4c-8.1,16.3-17.9,31.3-31.6,43.4c-2.9-2.1-1.4-6-3.8-8.9
		c-2.8,2.1-1.8,5-2.1,7.6c-0.4,3.7,1.1,7.9-2.5,10.9c-19.2,19-38.3,38-57.4,57c-0.9,0.9-1.2,2.3-1.7,3.5c-0.2,3.6-3,5.1-5.4,7
		c-16.8,15.5-32.4,32.2-49.1,48.5c5.1,0.8,9.7-0.2,14.1,0.7c1.7,0.3,5.9-0.4,3.3,4C402.6,510.2,393.3,511.2,384.1,507z"/>
	<path id="XMLID_8_" class="st2" d="M384.1,507c9.3-0.3,18.7-0.6,28-1c-4.2-14.2,0.1-26,14.3-34.2c6-3.5,10.9-6.8,13.1-13.6
		c0.7-2.1,2.2-4.2,4.4-5.4c1.7-1.7,3.4-3.4,5.1-5c0.7-0.4,1.3-0.9,2-1.2c9.6-4,18.3-8.5,26.3-15.9c11-10.2,28.1-8.2,39.2,2.3
		c3.2,3,6.2,4.1,10.5,3.9c18-0.8,29.4,8.4,33.3,26.3c0.5,2.3,0.6,4.4,3,6.1c13,9,16.9,21.2,11.2,37.3c9,0,17.5,0,28,0
		c-8.7,10.6-16.1,19.5-23.5,28.4c-11.6,13.9-23.3,27.6-34.6,41.7c-2.5,3.1-5,4.2-8.7,4.2c-27.7-0.1-55.3-0.1-83,0
		c-3.5,0-5.9-1.1-8.2-3.8C424.5,553.5,404.3,530.2,384.1,507z"/>
	<path id="XMLID_7_" class="st3" d="M508.3,387.2c0.1-6,0.3-12.1,0.3-18.1c0-2.7,0.5-4.6,3.8-4.6c3.1,0,4.1,1.5,4.1,4.4
		c0,2.9,0.2,5.8,0.3,8.7c-0.1,6.9-0.2,13.8-0.2,20.7c0,3.1-0.6,5-4.3,4.9c-3.5-0.1-3.7-2.2-3.7-4.7
		C508.5,394.7,508.4,390.9,508.3,387.2z"/>
	<path id="XMLID_6_" class="st0" d="M376.1,182.7c0,15.1,0,29.9,0,44.7c0,1.9-0.1,3.7,0,5.6c0.3,3.7-1.9,4.3-4.9,4.6
		c-4.4,0.4-3.1-2.8-3.1-4.8c-0.1-14.1-0.2-28.2,0-42.3c0.1-4.9-0.3-7.8-6.6-7.8c-6.7,0-6.3,3.7-6.3,8.2c0.1,13.8,0.1,27.7,0,41.5
		c0,2.1,1.7,6-3.2,5.5c-3.5-0.3-4.9-2.1-4.9-5.8c0.2-16.2,0.1-32.5,0.1-51.1c-8,17.6-12.5,33.8-14.3,50.8c-0.3,2.6-0.2,5.3-0.6,7.9
		c-1.8,11,0.5,20.7,9.4,27.9c6.9,5.5,9.2,12.1,9,20.8c-0.5,23.1-0.3,46.3-0.1,69.4c0.1,5.8-1.4,6.8-6.7,4.7
		c-36.9-15.2-64.7-53.5-65.8-94.8c-0.7-28,6.7-52.8,24.6-73.7c19.5-22.8,44.4-36.4,75.1-38.4c32.8-2.1,60.7,8.4,83.9,31.2
		c16,15.7,25.6,35.6,28.9,57.5c6.6,44.5-9.6,80.1-45.8,106.6c-5,3.7-10.9,9.8-16.5,7.6c-3.6-1.4-1-10.2-1.2-15.7
		c-0.3-6.6-0.1-13.3,0-20c0-4.3-1.5-9.1,5.9-9.5c3.1-0.1,3.1-4.7,3.2-7.4c0.9-24.9,5.2-49.8,3.3-74.7c-1.2-15.6-3.3-31.3-15.8-43
		c-1-0.9-1.9-1.9-3-2.7c-2.6-1.9-6.1-4.2-8.7-3.1c-2.8,1.2-2.4,5.5-2.4,8.6c0,21.5,1.4,43.1,0.8,64.5c-0.9,30.6-0.2,61.1-0.8,91.7
		c0,2.4,0,4.8,0,7.2c-0.2,14.7,2.6,12.1-13.9,14.9c-7.2,1.2-14.9,0.1-22.3,0.3c-4.1,0.1-5.6-1.6-5.5-5.7c0.1-26.9,0.1-53.8,0-80.6
		c0-6.1,3.8-10,8.1-13c10.9-7.5,15.1-17.3,14.6-30.6c-0.7-17.4-2.5-34.4-9.7-50.4c-0.9-1.9-2-3.8-3-5.6
		C377.7,183.5,377.1,183.3,376.1,182.7z"/>
	<path id="XMLID_5_" class="st4" d="M486.2,364.9c0-8.2,0-16.4,0-24.7c0-2.6-0.4-5.4,3.7-5.5c3.9-0.1,4.2,2,4.2,5
		c-0.1,17,0,33.9,0,50.9c0,2.7-0.4,4.5-3.8,4.7c-3.9,0.1-4.2-2-4.2-5C486.3,381.9,486.2,373.4,486.2,364.9z"/>
	<path id="XMLID_4_" class="st5" d="M444,452.8c-3.9,9.8-7.8,18.6-19.7,22.7c-8.4,2.9-12,12.2-11.8,21.8c0.1,2.9-0.2,5.8-0.4,8.6
		c-6.8,0-13.7,0-20.3,0c-0.8-3.2,1.2-4.1,2.4-5.3c14.6-14.7,29.3-29.3,44-44C439.9,455.1,441.3,452.9,444,452.8z"/>
	<path id="XMLID_3_" class="st4" d="M470.2,392.4c0,5.8,0,11.7,0,17.5c0,2.7-0.5,4.6-3.8,4.6c-3.2,0-4.1-1.3-4.1-4.3
		c0.1-12.2,0.1-24.5,0-36.7c0-3,1.1-4.3,4.2-4.3c3.4,0.1,3.8,2.1,3.7,4.8C470.1,380.1,470.2,386.3,470.2,392.4z"/>
	<path id="XMLID_2_" class="st6" d="M458.3,485.8c-1.2-3.2-2.3-6.1-3.4-9c-4.6-12.1,2.1-21.8,15.1-20.5c6.7,0.6,9.6-0.2,10.8-7.6
		c1.1-6.7,7.6-9.5,14-9.7c7.1-0.2,13.2,3,15.8,9.9c2.2,5.7,4,8.1,10.4,4.2c6.3-3.9,13.4-3.1,19.4,1.7c5.7,4.6,6.5,10.8,4.1,17.3
		c-1.6,4.4,0.2,5.7,4.1,6.5c5.2,1,9.4,3.6,12.3,8.1c5.2,8.3-0.2,18.9-10,19c-38.8,0.2-77.6,0.1-116.4,0c-6.6,0-9.6-6.2-6.5-13.2
		c3.2-7.1,9.4-8.6,16.6-8.3C448.9,484.3,453.1,487,458.3,485.8z"/>
</g>
<g id="XMLID_12_">
	<path id="XMLID_13_" class="st0" d="M75.7,680.2v9.2h-36v40.7h29v9.9H39.1v34.9H28.4v-94.7H75.7z"/>
	<path id="XMLID_15_" class="st0" d="M137.1,735.4c0,6.4-0.7,12.2-2.2,17.3c-1.5,5.1-3.5,9.4-6.1,12.9c-2.6,3.5-5.6,6.3-9.1,8.2
		c-3.5,1.9-7.2,2.8-11.1,2.8c-4,0-7.7-1-11.2-2.9s-6.5-4.8-9.1-8.4c-2.6-3.6-4.6-7.9-6.1-13c-1.5-5.1-2.2-10.7-2.2-16.9
		c0-5.3,0.7-10.2,2-14.5c1.3-4.4,3.2-8.2,5.7-11.3c2.5-3.2,5.5-5.6,9-7.4c3.5-1.8,7.5-2.6,11.9-2.6c4.9,0,9.1,0.9,12.7,2.6
		c3.6,1.8,6.5,4.2,8.9,7.4c2.3,3.2,4.1,6.9,5.2,11.3C136.6,725.3,137.1,730.1,137.1,735.4z M126.8,735.6c0-4-0.4-7.7-1.1-11
		c-0.7-3.3-1.8-6.1-3.3-8.5c-1.5-2.4-3.4-4.2-5.7-5.5c-2.3-1.3-5-1.9-8.1-1.9c-2.8,0-5.3,0.6-7.6,1.9c-2.3,1.3-4.2,3.1-5.7,5.5
		c-1.6,2.4-2.8,5.2-3.6,8.5c-0.8,3.3-1.3,7-1.3,11c0,4.7,0.5,8.9,1.4,12.7c1,3.8,2.3,7,3.9,9.8c1.6,2.7,3.5,4.8,5.8,6.3
		c2.2,1.5,4.6,2.2,7.1,2.2c2.5,0,4.9-0.7,7.1-2.1c2.2-1.4,4.1-3.5,5.8-6.2c1.6-2.7,2.9-5.9,3.9-9.7
		C126.3,744.7,126.8,740.4,126.8,735.6z"/>
	<path id="XMLID_18_" class="st0" d="M201.4,735.4c0,6.4-0.7,12.2-2.2,17.3c-1.5,5.1-3.5,9.4-6.1,12.9c-2.6,3.5-5.6,6.3-9.1,8.2
		c-3.5,1.9-7.2,2.8-11.1,2.8c-4,0-7.7-1-11.2-2.9s-6.5-4.8-9.1-8.4c-2.6-3.6-4.6-7.9-6.1-13c-1.5-5.1-2.2-10.7-2.2-16.9
		c0-5.3,0.7-10.2,2-14.5c1.3-4.4,3.2-8.2,5.7-11.3c2.5-3.2,5.5-5.6,9-7.4c3.5-1.8,7.5-2.6,11.9-2.6c4.9,0,9.1,0.9,12.7,2.6
		c3.6,1.8,6.5,4.2,8.9,7.4c2.3,3.2,4.1,6.9,5.2,11.3C200.9,725.3,201.4,730.1,201.4,735.4z M191.1,735.6c0-4-0.4-7.7-1.1-11
		c-0.7-3.3-1.8-6.1-3.3-8.5c-1.5-2.4-3.4-4.2-5.7-5.5c-2.3-1.3-5-1.9-8.1-1.9c-2.8,0-5.3,0.6-7.6,1.9c-2.3,1.3-4.2,3.1-5.7,5.5
		c-1.6,2.4-2.8,5.2-3.6,8.5c-0.8,3.3-1.3,7-1.3,11c0,4.7,0.5,8.9,1.4,12.7c1,3.8,2.3,7,3.9,9.8c1.6,2.7,3.5,4.8,5.8,6.3
		c2.2,1.5,4.6,2.2,7.1,2.2c2.5,0,4.9-0.7,7.1-2.1c2.2-1.4,4.1-3.5,5.8-6.2c1.6-2.7,2.9-5.9,3.9-9.7
		C190.6,744.7,191.1,740.4,191.1,735.6z"/>
	<path id="XMLID_21_" class="st0" d="M267.4,678.7v95.4h-9.2v-10.4c-0.9,1.6-1.9,3-2.9,4.2c-1,1.2-2.1,2.3-3.2,3.1
		c-1.1,0.9-2.2,1.6-3.4,2.2c-1.1,0.6-2.2,1.1-3.3,1.5c-2.5,0.9-5,1.5-7.6,1.6c-4.1,0-8-0.9-11.6-2.7c-3.6-1.8-6.7-4.4-9.3-7.8
		c-2.6-3.4-4.6-7.5-6.1-12.3s-2.2-10.2-2.2-16.2c0-5.1,0.6-9.9,1.7-14.4c1.1-4.5,2.8-8.5,5-11.8c2.2-3.4,4.8-6.1,7.9-8.1
		c3.1-2,6.6-3,10.5-3c3.3,0.1,6.5,0.7,9.5,1.8c1.3,0.4,2.6,1,4,1.7c1.4,0.7,2.7,1.6,4,2.6c1.3,1,2.5,2.3,3.6,3.6
		c1.1,1.4,2.1,3,3,4.8v-35.5L267.4,678.7z M257.2,738.8c-0.1-3.7-0.6-7-1.3-9.9c-0.7-2.9-1.7-5.4-2.8-7.5c-1.1-2.1-2.4-3.9-3.8-5.4
		c-1.4-1.4-2.9-2.6-4.3-3.5c-1.5-0.9-2.9-1.5-4.4-1.9s-2.8-0.6-4-0.6c-3.2,0-5.9,0.7-8.2,2.1c-2.3,1.4-4.1,3.4-5.6,6
		c-1.5,2.6-2.6,5.7-3.2,9.3c-0.7,3.6-1,7.6-1,12c0,5.2,0.7,9.6,2,13.1c1.4,3.6,3.1,6.5,5.1,8.7c2,2.2,4.2,3.8,6.6,4.8
		c2.4,1,4.6,1.5,6.7,1.5c2.2,0,4.4-0.5,6.6-1.6c2.2-1.1,4.1-2.8,5.9-5.2c1.7-2.3,3.1-5.3,4.2-8.9S257.2,743.9,257.2,738.8z"/>
	<path id="XMLID_24_" class="st0" d="M360.9,680.2v9.2h-36v40.7h29v9.9h-29.6v34.9h-10.6v-94.7H360.9z"/>
	<path id="XMLID_26_" class="st0" d="M422.4,735.4c0,6.4-0.7,12.2-2.2,17.3c-1.5,5.1-3.5,9.4-6.1,12.9c-2.6,3.5-5.6,6.3-9.1,8.2
		c-3.5,1.9-7.2,2.8-11.1,2.8c-4,0-7.7-1-11.2-2.9s-6.5-4.8-9.1-8.4c-2.6-3.6-4.6-7.9-6.1-13c-1.5-5.1-2.2-10.7-2.2-16.9
		c0-5.3,0.7-10.2,2-14.5c1.3-4.4,3.2-8.2,5.7-11.3c2.5-3.2,5.5-5.6,9-7.4c3.5-1.8,7.5-2.6,11.9-2.6c4.9,0,9.1,0.9,12.7,2.6
		c3.6,1.8,6.5,4.2,8.9,7.4c2.3,3.2,4.1,6.9,5.2,11.3C421.8,725.3,422.4,730.1,422.4,735.4z M412,735.6c0-4-0.4-7.7-1.1-11
		c-0.7-3.3-1.8-6.1-3.3-8.5c-1.5-2.4-3.4-4.2-5.7-5.5c-2.3-1.3-5-1.9-8.1-1.9c-2.8,0-5.3,0.6-7.6,1.9c-2.3,1.3-4.2,3.1-5.7,5.5
		c-1.6,2.4-2.8,5.2-3.6,8.5c-0.8,3.3-1.3,7-1.3,11c0,4.7,0.5,8.9,1.4,12.7c1,3.8,2.3,7,3.9,9.8c1.6,2.7,3.5,4.8,5.8,6.3
		c2.2,1.5,4.6,2.2,7.1,2.2c2.5,0,4.9-0.7,7.1-2.1c2.2-1.4,4.1-3.5,5.8-6.2s2.9-5.9,3.9-9.7C411.5,744.7,412,740.4,412,735.6z"/>
	<path id="XMLID_29_" class="st0" d="M467.2,703.2c2.6,0,4.8,0.5,6.5,1.6c1.8,1.1,3.2,2.5,4.3,4.3c1.1,1.8,1.9,3.8,2.3,6.2
		c0.5,2.3,0.7,4.8,0.7,7.3c0,2.5-0.1,5.4-0.4,8.9c-0.3,3.5-0.8,7-1.7,10.5l-8.2-1.2c0.5-3.2,0.9-6.1,1.1-8.7c0.2-2.7,0.3-5,0.3-6.9
		c0-4.8-0.5-8.1-1.5-10.1c-1-1.9-2.6-2.9-4.6-2.9c-1.8,0-3.8,0.8-6,2.5c-2.1,1.7-4.2,4.3-6.3,7.7c-2.1,3.4-3.9,7.8-5.6,13
		c-1.7,5.2-3,11.3-3.9,18.4v23.6l-10.1-0.5c0-13-0.2-24.1-0.4-33.3c-0.2-9.2-0.4-16.7-0.6-22.6c-0.3-6.9-0.6-12.5-0.9-16.9l11.9-0.8
		v21.9c0.9-2.4,2-4.9,3.4-7.5c1.4-2.6,3.1-4.9,5-7.1c1.9-2.1,4.1-3.9,6.6-5.3C461.5,703.9,464.2,703.2,467.2,703.2z"/>
	<path id="XMLID_31_" class="st7" d="M565.9,711.7c0-4.1-0.4-7.6-1.1-10.5c-0.7-2.8-1.6-5.2-2.7-7c-1.1-1.8-2.2-3.2-3.5-4.2
		c-1.2-1-2.4-1.7-3.5-2.2c-1.1-0.5-2.3-0.8-3.8-0.9c-3,0-5.8,0.8-8.2,2.5c-2.5,1.7-4.5,4.2-6.3,7.7c-1.7,3.4-3.1,7.7-4,12.8
		c-1,5.1-1.4,11.1-1.4,18.1c0,6.9,0.4,13,1.3,18.2c0.9,5.2,2.1,9.6,3.7,13.1c1.6,3.5,3.5,6.2,5.8,7.9c2.3,1.8,4.8,2.6,7.6,2.6
		c0.1,0,0.5,0,1.3-0.1c0.8-0.1,1.7-0.4,2.7-0.9c1-0.5,2.2-1.3,3.4-2.4c1.2-1.1,2.4-2.6,3.5-4.6c1.1-2,2-4.6,2.8-7.7
		c0.8-3.1,1.3-6.9,1.5-11.4c-3.4,0.3-6.8,0.6-10.1,1.1c-3.3,0.5-6.6,1.1-9.9,1.9V735c6.2,0.3,12.3,0.4,18.3,0.4c2.1,0,4.3,0,6.4,0
		s4.2,0,6.4-0.1c0,5.4-0.4,10.1-1.1,14.1c-0.7,4.1-1.7,7.6-2.9,10.6c-1.2,3-2.5,5.6-4.1,7.6c-1.5,2.1-3.1,3.8-4.7,5.1
		s-3.2,2.4-4.7,3.1c-1.5,0.7-2.9,1.2-4.2,1.6c-1.2,0.3-2.3,0.5-3,0.6c-0.8,0.1-1.2,0.1-1.3,0.1c-5.1,0-9.6-1.1-13.6-3.2
		c-4-2.1-7.3-5.3-10-9.4c-2.7-4.2-4.8-9.3-6.2-15.5c-1.4-6.2-2.1-13.3-2.1-21.4c0-8.8,0.7-16.4,2.1-22.8c1.4-6.4,3.5-11.7,6.3-16
		c2.8-4.2,6.4-7.3,10.7-9.4c4.3-2.1,9.4-3.1,15.2-3.1c0.1,0,0.8,0.1,2.1,0.2c1.3,0.1,2.9,0.5,4.7,1.1c1.8,0.6,3.8,1.6,5.9,3
		c2.1,1.4,4,3.3,5.8,5.8c1.8,2.5,3.2,5.7,4.4,9.6c1.2,3.9,1.8,8.6,1.8,14.2L565.9,711.7z"/>
	<path id="XMLID_33_" class="st7" d="M641.4,735.4c0,6.4-0.7,12.2-2.2,17.3c-1.5,5.1-3.5,9.4-6.1,12.9c-2.6,3.5-5.6,6.3-9.1,8.2
		c-3.5,1.9-7.2,2.8-11.1,2.8c-4,0-7.7-1-11.2-2.9s-6.5-4.8-9.1-8.4c-2.6-3.6-4.6-7.9-6.1-13c-1.5-5.1-2.2-10.7-2.2-16.9
		c0-5.3,0.7-10.2,2-14.5c1.3-4.4,3.2-8.2,5.7-11.3c2.5-3.2,5.5-5.6,9-7.4c3.5-1.8,7.5-2.6,11.9-2.6c4.9,0,9.1,0.9,12.7,2.6
		c3.6,1.8,6.5,4.2,8.9,7.4c2.3,3.2,4.1,6.9,5.2,11.3C640.8,725.3,641.4,730.1,641.4,735.4z M631,735.6c0-4-0.4-7.7-1.1-11
		c-0.7-3.3-1.8-6.1-3.3-8.5c-1.5-2.4-3.4-4.2-5.7-5.5c-2.3-1.3-5-1.9-8.1-1.9c-2.8,0-5.3,0.6-7.6,1.9c-2.3,1.3-4.2,3.1-5.7,5.5
		c-1.6,2.4-2.8,5.2-3.6,8.5c-0.8,3.3-1.3,7-1.3,11c0,4.7,0.5,8.9,1.4,12.7c1,3.8,2.3,7,3.9,9.8c1.6,2.7,3.5,4.8,5.8,6.3
		c2.2,1.5,4.6,2.2,7.1,2.2c2.5,0,4.9-0.7,7.1-2.1c2.2-1.4,4.1-3.5,5.8-6.2s2.9-5.9,3.9-9.7C630.5,744.7,631,740.4,631,735.6z"/>
	<path id="XMLID_36_" class="st7" d="M705.7,735.4c0,6.4-0.7,12.2-2.2,17.3c-1.5,5.1-3.5,9.4-6.1,12.9c-2.6,3.5-5.6,6.3-9.1,8.2
		c-3.5,1.9-7.2,2.8-11.1,2.8c-4,0-7.7-1-11.2-2.9s-6.5-4.8-9.1-8.4c-2.6-3.6-4.6-7.9-6.1-13c-1.5-5.1-2.2-10.7-2.2-16.9
		c0-5.3,0.7-10.2,2-14.5c1.3-4.4,3.2-8.2,5.7-11.3c2.5-3.2,5.5-5.6,9-7.4c3.5-1.8,7.5-2.6,11.9-2.6c4.9,0,9.1,0.9,12.7,2.6
		c3.6,1.8,6.5,4.2,8.9,7.4c2.3,3.2,4.1,6.9,5.2,11.3C705.1,725.3,705.7,730.1,705.7,735.4z M695.3,735.6c0-4-0.4-7.7-1.1-11
		c-0.7-3.3-1.8-6.1-3.3-8.5c-1.5-2.4-3.4-4.2-5.7-5.5c-2.3-1.3-5-1.9-8.1-1.9c-2.8,0-5.3,0.6-7.6,1.9c-2.3,1.3-4.2,3.1-5.7,5.5
		c-1.6,2.4-2.8,5.2-3.6,8.5c-0.8,3.3-1.3,7-1.3,11c0,4.7,0.5,8.9,1.4,12.7c1,3.8,2.3,7,3.9,9.8c1.6,2.7,3.5,4.8,5.8,6.3
		c2.2,1.5,4.6,2.2,7.1,2.2c2.5,0,4.9-0.7,7.1-2.1c2.2-1.4,4.1-3.5,5.8-6.2s2.9-5.9,3.9-9.7C694.8,744.7,695.3,740.4,695.3,735.6z"/>
	<path id="XMLID_39_" class="st7" d="M771.6,678.7v95.4h-9.2v-10.4c-0.9,1.6-1.9,3-2.9,4.2c-1,1.2-2.1,2.3-3.2,3.1
		c-1.1,0.9-2.2,1.6-3.4,2.2c-1.1,0.6-2.2,1.1-3.3,1.5c-2.5,0.9-5,1.5-7.6,1.6c-4.1,0-8-0.9-11.6-2.7c-3.6-1.8-6.7-4.4-9.3-7.8
		c-2.6-3.4-4.6-7.5-6.1-12.3s-2.2-10.2-2.2-16.2c0-5.1,0.6-9.9,1.7-14.4c1.1-4.5,2.8-8.5,5-11.8c2.2-3.4,4.8-6.1,7.9-8.1
		c3.1-2,6.6-3,10.5-3c3.3,0.1,6.5,0.7,9.5,1.8c1.3,0.4,2.6,1,4,1.7c1.4,0.7,2.7,1.6,4,2.6c1.3,1,2.5,2.3,3.6,3.6
		c1.1,1.4,2.1,3,3,4.8v-35.5L771.6,678.7z M761.5,738.8c-0.1-3.7-0.6-7-1.3-9.9c-0.7-2.9-1.7-5.4-2.8-7.5c-1.1-2.1-2.4-3.9-3.8-5.4
		c-1.4-1.4-2.9-2.6-4.3-3.5c-1.5-0.9-2.9-1.5-4.4-1.9c-1.5-0.4-2.8-0.6-4-0.6c-3.2,0-5.9,0.7-8.2,2.1c-2.3,1.4-4.1,3.4-5.6,6
		c-1.5,2.6-2.6,5.7-3.2,9.3s-1,7.6-1,12c0,5.2,0.7,9.6,2,13.1c1.4,3.6,3.1,6.5,5.1,8.7c2,2.2,4.2,3.8,6.6,4.8c2.4,1,4.6,1.5,6.7,1.5
		c2.2,0,4.4-0.5,6.6-1.6c2.2-1.1,4.1-2.8,5.9-5.2c1.7-2.3,3.1-5.3,4.2-8.9S761.5,743.9,761.5,738.8z"/>
</g>
</svg>
